# xmcd CD Database Entry
#
# Track frame offsets:
# 150
# 10597
# 22532
# 34870
# 47577
# 61505
# 74267
# 87362
# 99265
# 112697
# 124757
# 137750
# 150845
# 164630
# 175405
# 187372
#
# Disc length: 2656 seconds
#
# Revision: 1
# Processed by: cddbd v1.4PL0 Copyright (c) Steve Scherf et al.
# Submitted via: tcd 2.0b
#
DISCID=bd0a5e10
DTITLE=Eddie Vinson and Jimmy Witherspoon - Battle of the Blues
DYEAR=1900
DGENRE=
TTITLE0=Person to Person
TTITLE1=I'm Weak But Willing
TTITLE2=Somebody Done Stole My Cherry Red
TTITLE3=Queen Bee
TTITLE4=Featherbed Mama
TTITLE5=I Trusted You Baby
TTITLE6=No Good Woman
TTITLE7=Ashes On My Pillow
TTITLE8=The Last Mile
TTITLE9=24 Sad Hours
TTITLE10=Blues in Trouble
TTITLE11=Sad Life
TTITLE12=Don't Tell Me How
TTITLE13=Foolish Prayer
TTITLE14=Highway to Happiness
TTITLE15=I Done Told You
EXTD=
EXTT0=Vinson
EXTT1=Vinson
EXTT2=Vinson
EXTT3=Vinson
EXTT4=Vinson
EXTT5=Vinson
EXTT6=Vinson
EXTT7=Vinson
EXTT8=Witherspoon
EXTT9=Witherspoon
EXTT10=Witherspoon
EXTT11=Witherspoon
EXTT12=Witherspoon
EXTT13=Witherspoon
EXTT14=Witherspoon
EXTT15=Witherspoon
PLAYORDER=
